<svg xmlns="http://www.w3.org/2000/svg" xmlns:xlink="http://www.w3.org/1999/xlink" width="526" zoomAndPan="magnify" viewBox="0 0 394.5 394.499997" height="526" preserveAspectRatio="xMidYMid meet" version="1.0"><metadata><ContainsAiGeneratedContent>Yes</ContainsAiGeneratedContent></metadata><defs><g/><clipPath id="8cc4e9589e"><path d="M 0.652344 0.691406 L 5 0.691406 L 5 159.847656 L 0.652344 159.847656 Z M 0.652344 0.691406 " clip-rule="nonzero"/></clipPath><clipPath id="ff9bb05a34"><path d="M 21 90 L 285.648438 90 L 285.648438 138 L 21 138 Z M 21 90 " clip-rule="nonzero"/></clipPath><clipPath id="60d61f0206"><rect x="0" width="265" y="0" height="48"/></clipPath><clipPath id="345fef6ecf"><rect x="0" width="286" y="0" height="160"/></clipPath></defs><g transform="matrix(1, 0, 0, 1, 54, 117)"><g clip-path="url(#345fef6ecf)"><g clip-path="url(#8cc4e9589e)"><path stroke-linecap="butt" transform="matrix(0, 1.038665, -1.038665, 0, 4.982981, 2.879413)" fill="none" stroke-linejoin="miter" d="M -0.000488188 1.999423 L 148.5074 1.999423 " stroke="#ffffff" stroke-width="4" stroke-opacity="1" stroke-miterlimit="4"/></g><g fill="#ffffff" fill-opacity="1"><g transform="translate(21.606294, 81.041448)"><g><path d="M 13.609375 0 L 5.390625 0 L 5.390625 -41.53125 L 13.609375 -41.53125 Z M 13.609375 0 "/></g></g><g transform="translate(40.634968, 81.041448)"><g><path d="M 13.609375 -18.234375 L 13.609375 -6.875 L 33.4375 -6.875 L 33.4375 0 L 5.390625 0 L 5.390625 -41.53125 L 32.984375 -41.53125 L 32.984375 -34.65625 L 13.609375 -34.65625 L 13.609375 -24.9375 L 30.53125 -24.9375 L 30.53125 -18.234375 Z M 13.609375 -18.234375 "/></g></g><g transform="translate(76.335033, 81.041448)"><g><path d="M 13.609375 -18.234375 L 13.609375 -6.875 L 33.4375 -6.875 L 33.4375 0 L 5.390625 0 L 5.390625 -41.53125 L 32.984375 -41.53125 L 32.984375 -34.65625 L 13.609375 -34.65625 L 13.609375 -24.9375 L 30.53125 -24.9375 L 30.53125 -18.234375 Z M 13.609375 -18.234375 "/></g></g><g transform="translate(112.035097, 81.041448)"><g><path d="M 13.609375 -18.234375 L 13.609375 -6.875 L 33.4375 -6.875 L 33.4375 0 L 5.390625 0 L 5.390625 -41.53125 L 32.984375 -41.53125 L 32.984375 -34.65625 L 13.609375 -34.65625 L 13.609375 -24.9375 L 30.53125 -24.9375 L 30.53125 -18.234375 Z M 13.609375 -18.234375 "/></g></g><g transform="translate(147.735162, 81.041448)"><g/></g><g transform="translate(161.452847, 81.041448)"><g><path d="M 12.921875 0 L 5.390625 0 L 5.390625 -41.53125 L 16.140625 -41.53125 L 26.640625 -11 L 27.234375 -11 L 37.6875 -41.53125 L 48.171875 -41.53125 L 48.171875 0 L 40.390625 0 L 40.390625 -27.4375 L 39.6875 -27.546875 L 30.078125 0 L 23.234375 0 L 13.640625 -27.546875 L 12.921875 -27.4375 Z M 12.921875 0 "/></g></g><g transform="translate(215.045546, 81.041448)"><g><path d="M 13.609375 -18.234375 L 13.609375 -6.875 L 33.4375 -6.875 L 33.4375 0 L 5.390625 0 L 5.390625 -41.53125 L 32.984375 -41.53125 L 32.984375 -34.65625 L 13.609375 -34.65625 L 13.609375 -24.9375 L 30.53125 -24.9375 L 30.53125 -18.234375 Z M 13.609375 -18.234375 "/></g></g><g transform="translate(250.745611, 81.041448)"><g><path d="M 33.296875 -41.53125 L 33.296875 -34.625 L 21.296875 -34.625 L 21.296875 0 L 13.125 0 L 13.125 -34.625 L 1.140625 -34.625 L 1.140625 -41.53125 Z M 33.296875 -41.53125 "/></g></g></g><g clip-path="url(#ff9bb05a34)"><g transform="matrix(1, 0, 0, 1, 21, 90)"><g clip-path="url(#60d61f0206)"><g fill="#ffffff" fill-opacity="1"><g transform="translate(0.606294, 36.50749)"><g><path d="M 10.859375 0.359375 C 9.296875 0.359375 7.894531 0.144531 6.65625 -0.28125 C 5.414062 -0.707031 4.378906 -1.265625 3.546875 -1.953125 C 2.722656 -2.648438 2.109375 -3.410156 1.703125 -4.234375 L 3.296875 -6.171875 L 3.71875 -6.171875 C 5.257812 -3.578125 7.640625 -2.28125 10.859375 -2.28125 C 12.734375 -2.28125 14.125 -2.671875 15.03125 -3.453125 C 15.945312 -4.234375 16.40625 -5.320312 16.40625 -6.71875 C 16.40625 -7.53125 16.253906 -8.21875 15.953125 -8.78125 C 15.660156 -9.351562 15.164062 -9.835938 14.46875 -10.234375 C 13.78125 -10.640625 12.84375 -10.992188 11.65625 -11.296875 L 8.734375 -12 C 6.578125 -12.519531 4.984375 -13.347656 3.953125 -14.484375 C 2.929688 -15.628906 2.421875 -17.078125 2.421875 -18.828125 C 2.421875 -20.054688 2.734375 -21.15625 3.359375 -22.125 C 3.992188 -23.101562 4.925781 -23.863281 6.15625 -24.40625 C 7.382812 -24.945312 8.847656 -25.21875 10.546875 -25.21875 C 12.410156 -25.21875 13.984375 -24.953125 15.265625 -24.421875 C 16.554688 -23.898438 17.585938 -23.113281 18.359375 -22.0625 L 16.9375 -20.140625 L 16.515625 -20.140625 C 15.796875 -21.003906 14.945312 -21.640625 13.96875 -22.046875 C 13 -22.460938 11.859375 -22.671875 10.546875 -22.671875 C 8.816406 -22.671875 7.515625 -22.332031 6.640625 -21.65625 C 5.765625 -20.988281 5.328125 -20.066406 5.328125 -18.890625 C 5.328125 -17.765625 5.648438 -16.867188 6.296875 -16.203125 C 6.941406 -15.546875 8.03125 -15.035156 9.5625 -14.671875 L 12.53125 -13.96875 C 14.945312 -13.394531 16.695312 -12.519531 17.78125 -11.34375 C 18.863281 -10.175781 19.40625 -8.679688 19.40625 -6.859375 C 19.40625 -5.453125 19.085938 -4.207031 18.453125 -3.125 C 17.828125 -2.039062 16.875 -1.1875 15.59375 -0.5625 C 14.3125 0.0507812 12.734375 0.359375 10.859375 0.359375 Z M 10.859375 0.359375 "/></g></g><g transform="translate(21.913039, 36.50749)"><g><path d="M 12.6875 -2.96875 L 13.578125 -0.984375 C 13.128906 -0.546875 12.546875 -0.210938 11.828125 0.015625 C 11.109375 0.242188 10.328125 0.359375 9.484375 0.359375 C 5.898438 0.359375 4.109375 -1.453125 4.109375 -5.078125 L 4.109375 -16.5 L 0.84375 -16.5 L 0.84375 -18.78125 L 4.109375 -18.78125 L 4.109375 -22.734375 L 6.890625 -23.203125 L 6.890625 -18.78125 L 12.921875 -18.78125 L 12.921875 -16.5 L 6.890625 -16.5 L 6.890625 -5.359375 C 6.890625 -3.203125 7.820312 -2.125 9.6875 -2.125 C 10.707031 -2.125 11.585938 -2.40625 12.328125 -2.96875 Z M 12.6875 -2.96875 "/></g></g><g transform="translate(36.19689, 36.50749)"><g><path d="M 9.265625 0.359375 C 7.148438 0.359375 5.570312 -0.203125 4.53125 -1.328125 C 3.488281 -2.453125 2.96875 -4.097656 2.96875 -6.265625 L 2.96875 -18.75 L 5.75 -18.75 L 5.75 -6.328125 C 5.75 -3.484375 7.085938 -2.0625 9.765625 -2.0625 C 11.460938 -2.0625 12.800781 -2.613281 13.78125 -3.71875 C 14.769531 -4.832031 15.265625 -6.632812 15.265625 -9.125 L 15.265625 -18.75 L 18.046875 -18.75 L 18.046875 0 L 15.421875 0 L 15.421875 -2.9375 L 15.0625 -3.03125 C 14.414062 -1.882812 13.640625 -1.03125 12.734375 -0.46875 C 11.835938 0.0820312 10.679688 0.359375 9.265625 0.359375 Z M 9.265625 0.359375 "/></g></g><g transform="translate(57.503634, 36.50749)"><g><path d="M 9.734375 0.359375 C 8.222656 0.359375 6.890625 0 5.734375 -0.71875 C 4.585938 -1.4375 3.6875 -2.519531 3.03125 -3.96875 C 2.382812 -5.425781 2.0625 -7.226562 2.0625 -9.375 C 2.0625 -11.507812 2.398438 -13.304688 3.078125 -14.765625 C 3.753906 -16.222656 4.691406 -17.3125 5.890625 -18.03125 C 7.085938 -18.75 8.472656 -19.109375 10.046875 -19.109375 C 11.296875 -19.109375 12.421875 -18.875 13.421875 -18.40625 C 14.421875 -17.9375 15.273438 -17.164062 15.984375 -16.09375 L 16.34375 -16.15625 L 16.34375 -26.296875 L 19.109375 -26.296875 L 19.109375 0 L 16.34375 0 L 16.34375 -2.734375 L 15.984375 -2.8125 C 15.367188 -1.875 14.535156 -1.109375 13.484375 -0.515625 C 12.441406 0.0664062 11.191406 0.359375 9.734375 0.359375 Z M 10.59375 -2.125 C 12.34375 -2.125 13.738281 -2.722656 14.78125 -3.921875 C 15.820312 -5.117188 16.34375 -6.9375 16.34375 -9.375 C 16.34375 -11.820312 15.820312 -13.640625 14.78125 -14.828125 C 13.738281 -16.023438 12.34375 -16.625 10.59375 -16.625 C 8.789062 -16.625 7.398438 -16.039062 6.421875 -14.875 C 5.453125 -13.707031 4.96875 -11.875 4.96875 -9.375 C 4.96875 -4.539062 6.84375 -2.125 10.59375 -2.125 Z M 10.59375 -2.125 "/></g></g><g transform="translate(79.898672, 36.50749)"><g><path d="M 17.875 -8.734375 L 4.984375 -8.734375 C 5.066406 -6.460938 5.613281 -4.789062 6.625 -3.71875 C 7.632812 -2.65625 9.023438 -2.125 10.796875 -2.125 C 12.140625 -2.125 13.21875 -2.359375 14.03125 -2.828125 C 14.84375 -3.304688 15.484375 -4.054688 15.953125 -5.078125 L 16.3125 -5.078125 L 18.109375 -4.015625 C 17.566406 -2.648438 16.695312 -1.578125 15.5 -0.796875 C 14.300781 -0.0234375 12.734375 0.359375 10.796875 0.359375 C 8.984375 0.359375 7.425781 0.00390625 6.125 -0.703125 C 4.820312 -1.421875 3.816406 -2.503906 3.109375 -3.953125 C 2.410156 -5.410156 2.0625 -7.21875 2.0625 -9.375 C 2.0625 -11.5 2.429688 -13.289062 3.171875 -14.75 C 3.910156 -16.21875 4.921875 -17.3125 6.203125 -18.03125 C 7.492188 -18.75 8.96875 -19.109375 10.625 -19.109375 C 13.03125 -19.109375 14.90625 -18.429688 16.25 -17.078125 C 17.601562 -15.722656 18.285156 -13.710938 18.296875 -11.046875 C 18.296875 -10.003906 18.273438 -9.300781 18.234375 -8.9375 Z M 15.5625 -11.046875 C 15.519531 -13.046875 15.078125 -14.5 14.234375 -15.40625 C 13.390625 -16.3125 12.1875 -16.765625 10.625 -16.765625 C 8.976562 -16.765625 7.6875 -16.304688 6.75 -15.390625 C 5.820312 -14.484375 5.253906 -13.035156 5.046875 -11.046875 Z M 15.5625 -11.046875 "/></g></g><g transform="translate(99.896064, 36.50749)"><g><path d="M 3.265625 0 L 3.265625 -18.75 L 5.90625 -18.75 L 5.90625 -15.8125 L 6.265625 -15.734375 C 6.878906 -16.828125 7.671875 -17.660156 8.640625 -18.234375 C 9.609375 -18.816406 10.789062 -19.109375 12.1875 -19.109375 C 14.445312 -19.109375 16.082031 -18.53125 17.09375 -17.375 C 18.113281 -16.226562 18.625 -14.460938 18.625 -12.078125 L 18.625 0 L 15.84375 0 L 15.84375 -12 C 15.84375 -13.132812 15.695312 -14.046875 15.40625 -14.734375 C 15.125 -15.421875 14.675781 -15.921875 14.0625 -16.234375 C 13.457031 -16.546875 12.664062 -16.703125 11.6875 -16.703125 C 10 -16.703125 8.632812 -16.140625 7.59375 -15.015625 C 6.550781 -13.898438 6.03125 -12.101562 6.03125 -9.625 L 6.03125 0 Z M 3.265625 0 "/></g></g></g><g fill="#ffffff" fill-opacity="1"><g transform="translate(121.355849, 36.50749)"><g><path d="M 12.6875 -2.96875 L 13.578125 -0.984375 C 13.128906 -0.546875 12.546875 -0.210938 11.828125 0.015625 C 11.109375 0.242188 10.328125 0.359375 9.484375 0.359375 C 5.898438 0.359375 4.109375 -1.453125 4.109375 -5.078125 L 4.109375 -16.5 L 0.84375 -16.5 L 0.84375 -18.78125 L 4.109375 -18.78125 L 4.109375 -22.734375 L 6.890625 -23.203125 L 6.890625 -18.78125 L 12.921875 -18.78125 L 12.921875 -16.5 L 6.890625 -16.5 L 6.890625 -5.359375 C 6.890625 -3.203125 7.820312 -2.125 9.6875 -2.125 C 10.707031 -2.125 11.585938 -2.40625 12.328125 -2.96875 Z M 12.6875 -2.96875 "/></g></g><g transform="translate(135.6397, 36.50749)"><g/></g><g transform="translate(144.176001, 36.50749)"><g><path d="M 3.765625 0 L 3.765625 -24.859375 L 13.171875 -24.859375 C 14.703125 -24.859375 16 -24.613281 17.0625 -24.125 C 18.132812 -23.644531 18.9375 -22.953125 19.46875 -22.046875 C 20.007812 -21.148438 20.28125 -20.078125 20.28125 -18.828125 C 20.28125 -17.742188 19.988281 -16.765625 19.40625 -15.890625 C 18.820312 -15.023438 17.988281 -14.347656 16.90625 -13.859375 L 16.90625 -13.5 C 18.5625 -13.09375 19.816406 -12.347656 20.671875 -11.265625 C 21.523438 -10.191406 21.953125 -8.835938 21.953125 -7.203125 C 21.953125 -4.890625 21.273438 -3.109375 19.921875 -1.859375 C 18.566406 -0.617188 16.554688 0 13.890625 0 Z M 13.046875 -14.421875 C 14.410156 -14.421875 15.472656 -14.78125 16.234375 -15.5 C 16.992188 -16.21875 17.375 -17.207031 17.375 -18.46875 C 17.375 -19.789062 17.007812 -20.785156 16.28125 -21.453125 C 15.550781 -22.117188 14.472656 -22.453125 13.046875 -22.453125 L 6.6875 -22.453125 L 6.6875 -14.421875 Z M 13.671875 -2.421875 C 17.210938 -2.421875 18.984375 -4.015625 18.984375 -7.203125 C 18.984375 -10.398438 17.210938 -12 13.671875 -12 L 6.6875 -12 L 6.6875 -2.421875 Z M 13.671875 -2.421875 "/></g></g><g transform="translate(168.101452, 36.50749)"><g><path d="M 3.265625 0 L 3.265625 -18.75 L 5.90625 -18.75 L 5.90625 -15.8125 L 6.265625 -15.734375 C 7.128906 -17.859375 8.769531 -18.921875 11.1875 -18.921875 C 12.46875 -18.921875 13.425781 -18.691406 14.0625 -18.234375 L 13.34375 -15.890625 L 13.015625 -15.8125 C 12.304688 -16.164062 11.535156 -16.34375 10.703125 -16.34375 C 9.203125 -16.34375 8.046875 -15.78125 7.234375 -14.65625 C 6.429688 -13.53125 6.03125 -11.710938 6.03125 -9.203125 L 6.03125 0 Z M 3.265625 0 "/></g></g></g><g fill="#ffffff" fill-opacity="1"><g transform="translate(182.232262, 36.50749)"><g><path d="M 7.734375 0.359375 C 5.890625 0.359375 4.445312 -0.117188 3.40625 -1.078125 C 2.375 -2.046875 1.859375 -3.425781 1.859375 -5.21875 C 1.859375 -6.332031 2.085938 -7.269531 2.546875 -8.03125 C 3.003906 -8.800781 3.710938 -9.425781 4.671875 -9.90625 C 5.640625 -10.382812 6.898438 -10.753906 8.453125 -11.015625 C 9.816406 -11.242188 10.851562 -11.5 11.5625 -11.78125 C 12.269531 -12.0625 12.742188 -12.378906 12.984375 -12.734375 C 13.222656 -13.085938 13.34375 -13.53125 13.34375 -14.0625 C 13.34375 -14.914062 13.050781 -15.566406 12.46875 -16.015625 C 11.882812 -16.472656 10.945312 -16.703125 9.65625 -16.703125 C 8.445312 -16.703125 7.40625 -16.460938 6.53125 -15.984375 C 5.664062 -15.515625 4.875 -14.816406 4.15625 -13.890625 L 3.8125 -13.890625 L 2.453125 -15.8125 C 3.242188 -16.820312 4.25 -17.625 5.46875 -18.21875 C 6.695312 -18.8125 8.09375 -19.109375 9.65625 -19.109375 C 11.863281 -19.109375 13.492188 -18.625 14.546875 -17.65625 C 15.597656 -16.6875 16.125 -15.347656 16.125 -13.640625 L 16.125 -3.6875 C 16.125 -2.644531 16.566406 -2.125 17.453125 -2.125 C 17.742188 -2.125 18.023438 -2.175781 18.296875 -2.28125 L 18.53125 -2.203125 L 18.859375 -0.296875 C 18.648438 -0.148438 18.378906 -0.0390625 18.046875 0.03125 C 17.710938 0.101562 17.367188 0.140625 17.015625 0.140625 C 15.984375 0.140625 15.203125 -0.0820312 14.671875 -0.53125 C 14.148438 -0.988281 13.816406 -1.660156 13.671875 -2.546875 L 13.3125 -2.578125 C 12.78125 -1.597656 12.0625 -0.863281 11.15625 -0.375 C 10.25 0.113281 9.109375 0.359375 7.734375 0.359375 Z M 8.34375 -1.859375 C 9.394531 -1.859375 10.300781 -2.097656 11.0625 -2.578125 C 11.820312 -3.054688 12.40625 -3.734375 12.8125 -4.609375 C 13.226562 -5.484375 13.4375 -6.492188 13.4375 -7.640625 L 13.4375 -10.015625 L 13.109375 -10.078125 C 12.691406 -9.785156 12.179688 -9.539062 11.578125 -9.34375 C 10.984375 -9.144531 10.144531 -8.96875 9.0625 -8.8125 C 7.976562 -8.664062 7.113281 -8.4375 6.46875 -8.125 C 5.832031 -7.820312 5.375 -7.4375 5.09375 -6.96875 C 4.820312 -6.5 4.6875 -5.914062 4.6875 -5.21875 C 4.6875 -4.125 5.007812 -3.289062 5.65625 -2.71875 C 6.300781 -2.144531 7.195312 -1.859375 8.34375 -1.859375 Z M 8.34375 -1.859375 "/></g></g><g transform="translate(201.634493, 36.50749)"><g><path d="M 3.265625 0 L 3.265625 -18.75 L 5.90625 -18.75 L 5.90625 -15.8125 L 6.265625 -15.734375 C 6.878906 -16.828125 7.671875 -17.660156 8.640625 -18.234375 C 9.609375 -18.816406 10.789062 -19.109375 12.1875 -19.109375 C 14.445312 -19.109375 16.082031 -18.53125 17.09375 -17.375 C 18.113281 -16.226562 18.625 -14.460938 18.625 -12.078125 L 18.625 0 L 15.84375 0 L 15.84375 -12 C 15.84375 -13.132812 15.695312 -14.046875 15.40625 -14.734375 C 15.125 -15.421875 14.675781 -15.921875 14.0625 -16.234375 C 13.457031 -16.546875 12.664062 -16.703125 11.6875 -16.703125 C 10 -16.703125 8.632812 -16.140625 7.59375 -15.015625 C 6.550781 -13.898438 6.03125 -12.101562 6.03125 -9.625 L 6.03125 0 Z M 3.265625 0 "/></g></g><g transform="translate(223.230316, 36.50749)"><g><path d="M 10.765625 0.359375 C 9.109375 0.359375 7.625 -0.015625 6.3125 -0.765625 C 5 -1.523438 3.960938 -2.640625 3.203125 -4.109375 C 2.441406 -5.578125 2.0625 -7.332031 2.0625 -9.375 C 2.0625 -11.425781 2.441406 -13.1875 3.203125 -14.65625 C 3.960938 -16.125 5 -17.234375 6.3125 -17.984375 C 7.625 -18.734375 9.109375 -19.109375 10.765625 -19.109375 C 12.742188 -19.109375 14.320312 -18.734375 15.5 -17.984375 C 16.675781 -17.242188 17.523438 -16.25 18.046875 -15 L 16.15625 -13.640625 L 15.8125 -13.640625 C 15.300781 -14.671875 14.644531 -15.425781 13.84375 -15.90625 C 13.050781 -16.382812 12.023438 -16.625 10.765625 -16.625 C 9.609375 -16.625 8.59375 -16.351562 7.71875 -15.8125 C 6.84375 -15.269531 6.164062 -14.453125 5.6875 -13.359375 C 5.207031 -12.273438 4.96875 -10.945312 4.96875 -9.375 C 4.96875 -7.8125 5.207031 -6.488281 5.6875 -5.40625 C 6.175781 -4.320312 6.851562 -3.503906 7.71875 -2.953125 C 8.59375 -2.398438 9.609375 -2.125 10.765625 -2.125 C 12.066406 -2.125 13.144531 -2.414062 14 -3 C 14.851562 -3.59375 15.523438 -4.523438 16.015625 -5.796875 L 16.375 -5.796875 L 18.203125 -4.734375 C 17.710938 -3.148438 16.835938 -1.90625 15.578125 -1 C 14.328125 -0.09375 12.722656 0.359375 10.765625 0.359375 Z M 10.765625 0.359375 "/></g></g><g transform="translate(242.564529, 36.50749)"><g><path d="M 3.265625 0 L 3.265625 -26.296875 L 6.03125 -26.296875 L 6.03125 -16.09375 L 6.390625 -16.015625 C 7.734375 -18.078125 9.664062 -19.109375 12.1875 -19.109375 C 14.445312 -19.109375 16.082031 -18.53125 17.09375 -17.375 C 18.113281 -16.226562 18.625 -14.460938 18.625 -12.078125 L 18.625 0 L 15.84375 0 L 15.84375 -12 C 15.84375 -13.132812 15.695312 -14.046875 15.40625 -14.734375 C 15.125 -15.421875 14.675781 -15.921875 14.0625 -16.234375 C 13.457031 -16.546875 12.664062 -16.703125 11.6875 -16.703125 C 9.976562 -16.703125 8.609375 -16.148438 7.578125 -15.046875 C 6.546875 -13.953125 6.03125 -12.144531 6.03125 -9.625 L 6.03125 0 Z M 3.265625 0 "/></g></g></g></g></g></g></g></g></svg>